<svg xmlns="http://www.w3.org/2000/svg" width="900" height="600" viewBox="0 0 900 600">
  <title>Flag of China</title>
  <rect width="900" height="600" fill="#de2910"/>
  <path fill="#ffde00" d="M150 82.5 172.45 151.59h72.65l-58.77 42.7 22.45 69.09L150 220.68l-58.78 42.7 22.45-69.09-58.77-42.7h72.65z"/>
  <path fill="#ffde00" d="m300.49 65.86 5.66 27.58 25.16 12.65-27.98 3.17-4.4 27.8-11.69-25.6-27.81 4.43 20.78-18.98-12.8-25.08 24.48 13.87z"/>
  <path fill="#ffde00" d="m359.3 124.95-9.75 26.41 15.65 23.4-27.52-5.7-17.42 22.1-3.1-27.96-26.38-9.7 25.6-11.6 5.64-27.55 18.92 20.78z"/>
  <path fill="#ffde00" d="m361.43 216.82-19.66 20.14 4.18 27.85-25.28-12.35-25.1 12.75 3.74-27.9-19.97-19.82 27.58-5.17 12.69-25.14 13.08 24.94z"/>
  <path fill="#ffde00" d="m300.22 267.68-25.08 12.79-4.44 27.81-18.99-20.78-27.86 4.17 13.9-24.49-12.65-25.15 27.58 5.65 19.84-19.96 3.15 27.98z"/>
</svg>
