<svg xmlns="http://www.w3.org/2000/svg" viewBox="0 0 64 64">
  <rect width="64" height="32" fill="#ef3340"/>
  <rect y="32" width="64" height="32" fill="#fff"/>
  <circle cx="18" cy="17" r="10" fill="#fff"/>
  <circle cx="21" cy="17" r="8" fill="#ef3340"/>
  <g fill="#fff">
    <path d="M28 10l1.1 2.2 2.4.3-1.7 1.7.4 2.4-2.2-1.1-2.2 1.1.4-2.4-1.7-1.7 2.4-.3z"/>
    <path d="M33 14l1 2 2.2.3-1.6 1.5.4 2.2-2-1-2 1 .4-2.2-1.6-1.5 2.2-.3z"/>
    <path d="M33 21l1 2 2.2.3-1.6 1.5.4 2.2-2-1-2 1 .4-2.2-1.6-1.5 2.2-.3z"/>
    <path d="M28 25l1.1 2.2 2.4.3-1.7 1.7.4 2.4-2.2-1.1-2.2 1.1.4-2.4-1.7-1.7 2.4-.3z"/>
    <path d="M23 18l1 2 2.2.3-1.6 1.5.4 2.2-2-1-2 1 .4-2.2-1.6-1.5 2.2-.3z"/>
  </g>
</svg>
