<svg xmlns="http://www.w3.org/2000/svg" viewBox="0 0 64 64">
  <rect width="64" height="64" fill="#fff"/>
  <g fill="#b22234">
    <rect width="64" height="5"/>
    <rect y="10" width="64" height="5"/>
    <rect y="20" width="64" height="5"/>
    <rect y="30" width="64" height="5"/>
    <rect y="40" width="64" height="5"/>
    <rect y="50" width="64" height="5"/>
    <rect y="60" width="64" height="4"/>
  </g>
  <rect width="28" height="28" fill="#3c3b6e"/>
  <g fill="#fff">
    <circle cx="5" cy="5" r="1.2"/>
    <circle cx="12" cy="5" r="1.2"/>
    <circle cx="19" cy="5" r="1.2"/>
    <circle cx="26" cy="5" r="1.2"/>
    <circle cx="8.5" cy="10.5" r="1.2"/>
    <circle cx="15.5" cy="10.5" r="1.2"/>
    <circle cx="22.5" cy="10.5" r="1.2"/>
    <circle cx="5" cy="16" r="1.2"/>
    <circle cx="12" cy="16" r="1.2"/>
    <circle cx="19" cy="16" r="1.2"/>
    <circle cx="26" cy="16" r="1.2"/>
    <circle cx="8.5" cy="21.5" r="1.2"/>
    <circle cx="15.5" cy="21.5" r="1.2"/>
    <circle cx="22.5" cy="21.5" r="1.2"/>
  </g>
</svg>
