<?xml version="1.0" encoding="UTF-8"?>
<svg xmlns="http://www.w3.org/2000/svg" width="261" height="76" viewBox="0 0 261 76" fill="none">
  <path d="M8.76736 9.13281H252.188C256.527 9.13281 260.041 12.6459 260.041 16.9861V59.7159C260.041 64.0535 256.527 67.5666 252.188 67.5666H8.76736C4.43222 67.5666 0.914062 64.0535 0.914062 59.7159V16.9861C0.914062 12.6459 4.43222 9.13281 8.76736 9.13281Z" fill="white"></path>
  <path d="M8.7673 10.0455C4.9415 10.0455 1.82929 13.159 1.82929 16.9848V59.7158C1.82929 63.5403 4.9415 66.6525 8.7673 66.6525H252.188C256.012 66.6525 259.122 63.5403 259.122 59.7158V16.9848C259.122 13.159 256.012 10.0455 252.188 10.0455H8.7673ZM252.188 68.4818H8.7673C3.93303 68.4818 0 64.5475 0 59.7158V16.9848C0 12.1518 3.93303 8.21875 8.7673 8.21875H252.188C257.022 8.21875 260.954 12.1518 260.954 16.9848V59.7158C260.954 64.5475 257.022 68.4818 252.188 68.4818Z" fill="#161615"></path>
  <path d="M260.04 51.998V59.7148C260.04 64.0524 256.527 67.5655 252.186 67.5655H8.76608C4.43349 67.5655 0.914062 64.0524 0.914062 59.7148V51.998C0.914062 52.1168 260.083 52.0427 260.04 51.998Z" fill="#161615"></path>
  <path d="M158.333 31.4494V21.4362H160.197C161.327 21.4362 161.677 21.7081 161.677 22.6413V29.3942C161.677 30.9413 161.169 31.4494 160.235 31.4494H158.333ZM151.895 44.4855H158.333V36.4956H160.507C166.291 36.4956 168.35 34.8271 168.35 28.1112V23.2221C168.35 18.098 165.824 16.3926 161.169 16.3926H151.895V44.4855Z" fill="#329C32"></path>
  <path d="M176.379 30.1695C176.379 28.9695 176.843 28.7333 177.973 28.7333C179.096 28.7333 179.562 28.9695 179.562 30.1695V39.0159C179.562 40.2197 179.096 40.4507 177.973 40.4507C176.843 40.4507 176.379 40.2197 176.379 39.0159V30.1695ZM170.402 38.5129C170.402 43.831 173.042 44.7974 177.973 44.7974C182.9 44.7974 185.537 43.831 185.537 38.5129V30.675C185.537 25.3556 182.9 24.3867 177.973 24.3867C173.042 24.3867 170.402 25.3556 170.402 30.675V38.5129Z" fill="#329C32"></path>
  <path d="M190.263 44.4869H198.803L200.395 28.8122H200.467L202.067 44.4869H210.594L213.549 24.6992H208.156L206.367 40.8398H206.293L204.509 24.6992H196.356L194.571 40.8398H194.491L192.711 24.6992H187.312L190.263 44.4869Z" fill="#329C32"></path>
  <path d="M221.301 29.4329C221.301 28.6146 221.567 28.27 222.89 28.27C224.207 28.27 224.478 28.6146 224.478 29.4329V32.3434H221.301V29.4329ZM215.324 38.5129C215.324 43.831 217.962 44.7974 222.89 44.7974C228.711 44.7974 230.456 43.6357 230.456 39.478V38.3547H224.639V39.2865C224.639 40.4507 224.134 40.6843 223.006 40.6843C221.529 40.6843 221.301 40.3741 221.301 39.3261V35.9879H230.456V29.8605C230.456 26.756 229.173 24.3867 222.89 24.3867C217.962 24.3867 215.324 25.3556 215.324 30.675V38.5129Z" fill="#329C32"></path>
  <path d="M233.517 44.4859H239.256V30.0137C239.256 29.2006 239.761 28.9695 240.421 28.9695C241.039 28.9695 241.583 29.1214 241.583 29.7444V32.6932H246.4V27.3368C246.361 24.8897 245.078 24.3867 243.022 24.3867C240.811 24.3867 239.883 24.8501 239.1 26.6756H239.024V24.6982H233.517V44.4859Z" fill="#329C32"></path>
  <path d="M9.63135 39.0171C9.63135 43.5986 12.5789 44.7986 17.9748 44.7986C24.1431 44.7986 26.317 43.8322 26.317 38.398V29.3575H18.1306V34.6347H20.1079V39.0605C20.1079 39.6362 19.6446 39.9847 18.054 39.9847C16.7749 39.9847 16.3064 39.6362 16.3064 38.9392V22.6441C16.3064 21.2463 16.7749 20.8966 18.0144 20.8966C19.6446 20.8966 20.1079 21.2463 20.1079 22.5267V25.4742H26.317V22.722C26.317 16.938 23.0593 16.084 17.9748 16.084C12.5789 16.084 9.63135 17.2878 9.63135 21.8642V39.0171Z" fill="#329C32"></path>
  <path d="M29.6743 44.4859H35.4175V30.0137C35.4175 29.2006 35.923 28.9695 36.5817 28.9695C37.2034 28.9695 37.7433 29.1214 37.7433 29.7444V32.6932H42.5559V27.3368C42.5202 24.8897 41.2385 24.3867 39.1807 24.3867C36.9672 24.3867 36.0392 24.8501 35.263 26.6756H35.1813V24.6982H29.6743V44.4859Z" fill="#329C32"></path>
  <path d="M50.149 29.4329C50.149 28.6146 50.4209 28.27 51.7408 28.27C53.0582 28.27 53.3339 28.6146 53.3339 29.4329V32.3434H50.149V29.4329ZM44.1709 38.5129C44.1709 43.831 46.8108 44.7974 51.7408 44.7974C57.5606 44.7974 59.3069 43.6357 59.3069 39.478V38.3547H53.4858V39.2865C53.4858 40.4507 52.9829 40.6843 51.857 40.6843C50.3813 40.6843 50.149 40.3741 50.149 39.3261V35.9879H59.3069V29.8605C59.3069 26.756 58.0252 24.3867 51.7408 24.3867C46.8108 24.3867 44.1709 25.3556 44.1709 30.675V38.5129Z" fill="#329C32"></path>
  <path d="M67.9518 29.4329C67.9518 28.6146 68.2275 28.27 69.5449 28.27C70.8636 28.27 71.138 28.6146 71.138 29.4329V32.3434H67.9518V29.4329ZM61.9775 38.5129C61.9775 43.831 64.6162 44.7974 69.5449 44.7974C75.3659 44.7974 77.1122 43.6357 77.1122 39.478V38.3547H71.2912V39.2865C71.2912 40.4507 70.7882 40.6843 69.6623 40.6843C68.1866 40.6843 67.9518 40.3741 67.9518 39.3261V35.9879H77.1122V29.8605C77.1122 26.756 75.8306 24.3867 69.5449 24.3867C64.6162 24.3867 61.9775 25.3556 61.9775 30.675V38.5129Z" fill="#329C32"></path>
  <path d="M80.1694 44.4859H85.9139V30.3252C85.9139 29.4699 86.3019 28.9695 87.3117 28.9695C88.3993 28.9695 88.7874 29.4699 88.7874 30.3252V44.4859H94.5293V28.9299C94.5293 25.5114 92.5481 24.3867 90.0243 24.3867C88.1644 24.3867 86.8075 25.1246 85.9905 26.8696H85.9139V24.6982H80.1694V44.4859Z" fill="#329C32"></path>
  <path d="M251.812 12.5986C254.252 12.5986 256.2 14.6181 256.2 17.0423C256.2 19.4601 254.252 21.5051 251.812 21.5051C249.364 21.5051 247.405 19.4715 247.405 17.0423C247.405 14.6181 249.364 12.5986 251.812 12.5986ZM251.812 12.0293C249.047 12.0293 246.788 14.2824 246.788 17.0423C246.788 19.8098 249.047 22.0617 251.812 22.0617C254.558 22.0617 256.807 19.7958 256.807 17.0423C256.807 14.2964 254.558 12.0293 251.812 12.0293ZM250.384 14.7177H251.919C252.653 14.7177 253.348 14.9385 253.348 15.7938C253.348 16.7436 252.61 16.9606 251.812 16.9606H250.384V14.7177ZM249.66 14.2237V19.9388H250.384V17.438H251.779C253.406 17.438 253.26 18.0635 253.304 19.3133C253.324 19.5175 253.339 19.7486 253.44 19.9388H254.144C254.004 19.6643 254.004 19.3286 253.99 19.0082C253.955 18.1529 253.975 17.4967 253.027 17.1891C253.682 16.9478 254.077 16.464 254.077 15.7517C254.077 14.5747 253.027 14.2237 252.056 14.2237H249.66Z" fill="#161615"></path>
  <path d="M88.5005 0.916016H125.216L136.352 22.796L128.791 23.0028L144.8 44.4934H138.048L155.961 74.6377L119.843 46.2844H128.197L105.217 23.3015H114.472L88.5005 0.916016Z" fill="#FFD600"></path>
  <path d="M122.488 47.1989L152.673 70.8954L137.265 44.9599C137.096 44.679 137.093 44.3267 137.255 44.042C137.416 43.7561 137.722 43.5799 138.048 43.5799H142.98L128.059 23.5484C127.855 23.2739 127.822 22.9101 127.97 22.6012C128.119 22.2961 128.427 22.0957 128.767 22.0893L134.885 21.9208L124.657 1.82929H90.9613L115.069 22.6089C115.357 22.8591 115.461 23.2625 115.328 23.6199C115.196 23.976 114.853 24.2148 114.473 24.2148H107.425L128.844 45.6377C129.106 45.9007 129.184 46.2913 129.043 46.6347C128.901 46.9781 128.568 47.1989 128.198 47.1989H122.488ZM155.96 75.5535C155.761 75.5535 155.561 75.4884 155.396 75.3569L119.278 47.0036C118.973 46.7636 118.851 46.3551 118.978 45.9862C119.105 45.6198 119.453 45.3709 119.843 45.3709H125.991L104.571 23.9467C104.31 23.685 104.232 23.2918 104.373 22.951C104.516 22.6089 104.848 22.3867 105.218 22.3867H112.01L87.9027 1.60844C87.6142 1.35824 87.5108 0.954854 87.6436 0.597423C87.7763 0.237437 88.1185 0 88.5001 0H125.216C125.559 0 125.875 0.194035 126.032 0.500405L137.168 22.3804C137.31 22.6599 137.3 22.9918 137.139 23.2625C136.978 23.5318 136.692 23.7003 136.379 23.7092L130.576 23.8675L145.532 43.9476C145.74 44.2246 145.772 44.5935 145.619 44.9024C145.463 45.2126 145.148 45.4079 144.8 45.4079H139.656L156.745 74.171C156.971 74.5501 156.894 75.0327 156.563 75.325C156.391 75.4756 156.175 75.5535 155.96 75.5535Z" fill="#161615"></path>
  <path d="M23.8048 59.0876C23.8444 57.7255 23.2113 56.8524 20.9569 56.8524H17.703C16.0613 56.8524 14.8895 57.197 14.8716 58.4034V59.7489C14.8512 61.4275 15.6324 61.9407 17.5906 61.9407H20.6786C22.9649 61.9407 23.8048 61.2399 23.8048 59.9774V59.0876ZM25.4056 63.2593C25.4056 65.4703 22.8947 65.9133 20.8982 65.9133H17.2881C14.3495 65.9133 13.5682 64.6661 13.5682 63.7317V63.4904H15.0567V63.6895C15.0567 64.638 16.3217 64.9086 17.8102 64.9086H19.3752C22.5372 64.9086 23.8048 64.8806 23.8048 62.8994V61.8105H23.7678C23.4334 62.4985 22.7823 62.944 20.5497 62.944H17.2523C14.5908 62.944 13.2695 61.8986 13.2695 60.0208V58.8042C13.2695 56.1503 15.7639 55.8516 17.5511 55.8516H20.9569C22.167 55.8516 23.3759 56.0801 23.8814 57.2698H23.9159V55.9626H25.4056V63.2593Z" fill="white"></path>
  <path d="M48.7872 58.3401C48.7872 57.5972 48.0596 56.8504 45.4529 56.8504H43.1091C40.5765 56.8504 39.9803 57.167 39.8322 58.8278H48.7872V58.3401ZM38.2314 58.8023C38.2314 56.1483 40.6148 55.8496 42.887 55.8496H45.4529C48.3187 55.8496 50.3841 56.4036 50.3841 59.0154V59.8311H39.8322V60.2933C39.8322 61.9528 40.8739 62.383 43.6683 62.383H45.8626C47.877 62.383 48.6927 62.1838 48.7872 61.0643H50.3841V61.2073C50.3841 62.8834 48.5804 63.3889 45.6035 63.3889H42.6981C40.6148 63.3889 38.2314 63.0851 38.2314 60.3903V58.8023Z" fill="white"></path>
  <path d="M63.1367 55.9626H64.6303V57.2264H64.6647C65.2609 56.0916 66.5068 55.8516 68.4995 55.8516H70.8994C73.8967 55.8516 74.8439 57.0132 74.8439 58.3319V63.2759H73.2469V58.6306C73.2469 57.557 72.855 56.8511 69.7441 56.8511H69.3369C65.5953 56.8511 64.7388 57.3962 64.7388 59.117V63.2759H63.1367V55.9626Z" fill="white"></path>
  <path d="M98.2234 58.3401C98.2234 57.5972 97.4983 56.8504 94.8916 56.8504H92.5466C90.0152 56.8504 89.4216 57.167 89.271 58.8278H98.2234V58.3401ZM87.6689 58.8023C87.6689 56.1483 90.0523 55.8496 92.3258 55.8496H94.8916C97.7575 55.8496 99.8255 56.4036 99.8255 59.0154V59.8311H89.271V60.2933C89.271 61.9528 90.3152 62.383 93.1058 62.383H95.3052C97.3132 62.383 98.1302 62.1838 98.2234 61.0643H99.8255V61.2073C99.8255 62.8834 98.0179 63.3889 95.041 63.3889H92.1356C90.0523 63.3889 87.6689 63.0851 87.6689 60.3903V58.8023Z" fill="white"></path>
  <path d="M112.706 55.9626H114.196V57.0247H114.237C114.83 56.0801 116.044 55.8516 117.138 55.8516H118.647C121.642 55.8516 122.629 56.5958 122.629 58.3855V59.2599H121.141V58.9459C121.141 57.1358 120.655 56.8511 117.807 56.8511H116.82C115.13 56.8511 114.308 57.6847 114.308 58.6306V63.2759H112.706V55.9626Z" fill="white"></path>
  <path d="M159.692 60.9788C159.692 59.9754 158.535 59.849 156.082 59.849H153.624C151.557 59.849 150.985 60.0775 150.985 60.9928V61.2213C150.985 62.0408 151.352 62.383 153.547 62.383H155.673C158.575 62.383 159.692 62.2259 159.692 61.3119V60.9788ZM159.692 62.5413H159.654C159.225 63.2025 158.724 63.3889 156.266 63.3889H152.431C150.012 63.3889 149.377 62.5681 149.377 61.197V60.7043C149.377 59.0448 150.905 58.8457 153.696 58.8457H156.266C158.35 58.8457 159.097 59.0154 159.654 59.7201H159.692V58.3401C159.692 57.0228 158.611 56.8504 156.155 56.8504H153.812C151.8 56.8504 151.411 57.2244 151.411 57.8283V58.0836H149.808V57.7236C149.808 56.3921 150.905 55.8496 153.769 55.8496H156.303C159.283 55.8496 161.293 56.1892 161.293 58.3721V63.2753H159.692V62.5413Z" fill="white"></path>
  <path d="M175.216 56.9667H173.134V55.9633H175.216V54.2285H176.818V55.9633H183.164V56.9667H176.818V60.6074C176.818 61.9695 177.434 62.3856 179.181 62.3856H179.686C181.808 62.3856 182.141 62.0422 182.141 60.5104V59.9653H183.446V60.767C183.446 62.2273 183.258 63.3915 179.796 63.3915H178.922C175.923 63.3915 175.216 62.2707 175.216 61.081V56.9667Z" fill="white"></path>
  <path d="M206.508 58.884C206.508 57.1785 205.208 56.8504 203.344 56.8504H200.083C198.223 56.8504 196.921 57.1785 196.921 58.884V60.3469C196.921 62.0523 198.223 62.383 200.083 62.383H203.344C205.208 62.383 206.508 62.0523 206.508 60.3469V58.884ZM195.321 58.8137C195.321 56.4036 197.537 55.8496 200.567 55.8496H202.858C205.895 55.8496 208.108 56.4036 208.108 58.8137V60.4171C208.108 62.8285 205.895 63.3889 202.858 63.3889H200.567C197.537 63.3889 195.321 62.8285 195.321 60.4171V58.8137Z" fill="white"></path>
  <path d="M221.174 55.9626H222.661V57.0247H222.704C223.297 56.0801 224.507 55.8516 225.605 55.8516H227.116C230.106 55.8516 231.096 56.5958 231.096 58.3855V59.2599H229.604V58.9459C229.604 57.1358 229.124 56.8511 226.276 56.8511H225.286C223.598 56.8511 222.777 57.6847 222.777 58.6306V63.2759H221.174V55.9626Z" fill="white"></path>
  <path d="M242.88 60.7471H244.373V61.1084C244.373 62.0096 244.985 62.3836 246.623 62.3836H250.048C252.448 62.3836 253.217 62.3109 253.217 61.2233V61.1696C253.217 60.465 252.95 60.0782 251.035 60.0782H246.102C243.848 60.0782 243.012 59.5178 243.012 58.1276V57.6974C243.012 56.5064 243.886 55.8516 247.832 55.8516H250.291C253.902 55.8516 254.402 56.6507 254.402 57.6847V58.0689H252.915V58.0013C252.915 56.8817 251.944 56.8511 250.199 56.8511H247.404C245.116 56.8511 244.611 57.0247 244.611 57.8545V58.1276C244.611 58.7302 244.868 59.0723 246.545 59.0723H250.773C253.173 59.0723 254.816 59.2599 254.816 61.2399V61.2667C254.816 63.3206 252.356 63.3895 250.403 63.3895H247.458C245.096 63.3895 242.88 63.3895 242.88 61.199V60.7471Z" fill="white"></path>
</svg>
