<?xml version="1.0" encoding="UTF-8"?>
<svg id="Layer_2" data-name="Layer 2" xmlns="http://www.w3.org/2000/svg" viewBox="0 0 95.29 22.68">
  <defs>
    <style>
      .cls-1 {
        fill: #0f437f;
      }

      .cls-1, .cls-2 {
        stroke-width: 0px;
      }

      .cls-2 {
        fill: #ec2227;
      }
    </style>
  </defs>
  <g id="Layer_1-2" data-name="Layer 1">
    <g>
      <g>
        <path class="cls-1" d="M5.91,0v8.7h.06L10.35,0h6.29l-5.72,9.91,6.42,12.77h-6.73l-3.46-7.91-1.24,1.91v6H0V0h5.91Z"/>
        <path class="cls-1" d="M31.63,15.25c0,2.73-.62,4.65-1.87,5.76-1.25,1.11-3.09,1.67-5.53,1.67s-4.25-.61-5.3-1.84c-1.06-1.23-1.59-3.03-1.59-5.4v-.48h5.34v1.11c0,1.08.14,1.8.43,2.16.29.36.65.54,1.1.54s.81-.18,1.1-.54c.29-.36.43-1.08.43-2.16V0h5.91v15.25Z"/>
      </g>
      <g>
        <path class="cls-1" d="M39.59.17c.43,0,.81.07,1.13.21s.58.33.79.57c.21.24.36.53.46.85.1.33.15.68.15,1.07,0,.91-.24,1.59-.73,2.04-.49.45-1.2.68-2.14.68h-.8v3.34h-2.28V.17h3.42ZM38.88,3.95c.29,0,.51-.09.66-.26s.23-.44.23-.81c0-.71-.29-1.07-.88-1.07h-.43v2.14h.43Z"/>
        <path class="cls-1" d="M42.75,2.46c.11-.58.28-1.05.53-1.41.25-.36.57-.63.97-.8s.89-.25,1.47-.25,1.07.08,1.47.25.72.43.97.8.42.83.53,1.41.16,1.27.16,2.09-.05,1.52-.16,2.09-.28,1.05-.53,1.41-.57.62-.97.78-.89.23-1.47.23-1.07-.08-1.47-.23-.72-.42-.97-.78c-.25-.36-.42-.83-.53-1.41s-.16-1.27-.16-2.09.05-1.52.16-2.09ZM44.97,6.02c.02.39.05.7.1.93.05.23.13.39.23.48.1.09.24.13.41.13s.31-.04.41-.13c.1-.09.18-.25.23-.48.05-.23.09-.54.1-.93.02-.39.02-.88.02-1.47s0-1.08-.02-1.47c-.02-.39-.05-.7-.1-.93-.05-.23-.13-.39-.23-.48-.1-.09-.24-.13-.41-.13s-.31.04-.41.13c-.1.09-.18.25-.23.48-.05.23-.09.54-.1.93-.02.39-.02.88-.02,1.47s0,1.08.02,1.47Z"/>
        <path class="cls-1" d="M54.94.17l.9,6.06h.02l.61-6.06h2.21l-1.5,8.76h-2.5l-.76-5.89h-.02l-.76,5.89h-2.5L49.13.17h2.21l.69,6.06h.02l.82-6.06h2.06Z"/>
        <path class="cls-1" d="M64.41.17v1.87h-2.91v1.5h2.72v1.79h-2.72v1.74h3.02v1.87h-5.3V.17h5.19Z"/>
        <path class="cls-1" d="M68.93.17c.43,0,.8.06,1.11.17.31.12.56.28.75.49s.33.46.42.74c.09.29.13.6.13.93,0,.59-.12,1.06-.36,1.42s-.62.58-1.14.66v.02c.55.05.92.24,1.13.58.2.34.31.8.31,1.39v1.1c0,.12,0,.24.01.35,0,.11.02.21.04.3.02.09.04.16.06.21.03.05.07.1.1.14.03.05.09.09.16.13v.12h-2.43c-.06-.11-.1-.25-.13-.4-.03-.16-.05-.31-.06-.47-.01-.16-.02-.3-.02-.45,0-.14,0-.26,0-.35v-.59c0-.25-.01-.45-.04-.61-.02-.16-.07-.29-.13-.39s-.14-.16-.23-.2c-.09-.04-.21-.06-.35-.06h-.6v3.51h-2.28V.17h3.57ZM68.1,3.88c.33,0,.57-.1.72-.29.16-.19.23-.44.23-.76,0-.37-.08-.63-.23-.79-.15-.16-.4-.23-.74-.23h-.44v2.06h.45Z"/>
      </g>
      <rect class="cls-2" x="36.17" y="10.2" width="35.47" height="2.27"/>
      <g>
        <path class="cls-1" d="M42.73,17.77v4.77h-1.55l-.05-.77h-.02c-.07.19-.18.34-.31.47-.13.12-.29.22-.46.28-.17.06-.35.1-.54.13s-.39.04-.58.04c-.58,0-1.04-.1-1.38-.29-.34-.19-.59-.48-.76-.87-.17-.39-.28-.86-.33-1.43-.05-.57-.07-1.21-.07-1.94s.04-1.39.13-1.96c.09-.57.25-1.04.49-1.43.24-.39.58-.68,1-.88.43-.2.98-.3,1.65-.3.4,0,.77.05,1.11.16.34.11.63.28.88.52.25.24.44.54.58.92s.21.83.21,1.36h-2.21c0-.47-.04-.81-.12-1.02-.08-.25-.26-.38-.53-.38-.19,0-.34.04-.45.13-.11.09-.19.25-.25.48-.05.23-.09.54-.1.93-.02.39-.02.88-.02,1.47s0,1.08.02,1.47c.02.39.05.7.1.93.05.23.13.39.23.48.1.09.24.13.41.13.12,0,.23-.02.33-.07.09-.05.17-.14.24-.28.07-.13.12-.32.15-.57s.06-.55.06-.93h-.81v-1.55h2.95Z"/>
        <path class="cls-1" d="M48.87,13.76v1.87h-2.92v1.5h2.73v1.8h-2.73v1.75h3.03v1.87h-5.31v-8.78h5.2Z"/>
        <path class="cls-1" d="M52.38,13.76l1.48,5.41h.02v-5.41h2.14v8.78h-2.51l-1.52-5.42h-.02v5.42h-2.14v-8.78h2.56Z"/>
        <path class="cls-1" d="M62.3,13.76v1.87h-2.92v1.5h2.73v1.8h-2.73v1.75h3.03v1.87h-5.31v-8.78h5.2Z"/>
        <path class="cls-1" d="M66.83,13.76c.43,0,.81.06,1.11.17.31.12.56.28.75.49.19.21.33.46.42.74.09.29.13.6.13.93,0,.59-.12,1.07-.36,1.43-.24.36-.62.58-1.14.66v.02c.55.05.93.24,1.13.58.21.34.31.8.31,1.39v1.11c0,.12,0,.24.01.35,0,.11.02.21.04.3s.04.16.06.21c.03.05.07.1.1.14.03.04.09.09.16.13v.12h-2.44c-.06-.11-.1-.25-.13-.41-.03-.16-.05-.31-.06-.47-.01-.16-.02-.31-.03-.45,0-.14,0-.26,0-.35v-.59c0-.25-.01-.45-.04-.61-.02-.16-.07-.29-.13-.39-.06-.09-.14-.16-.23-.2-.09-.04-.21-.05-.35-.05h-.6v3.52h-2.29v-8.78h3.58ZM65.99,17.47c.33,0,.57-.1.73-.29.16-.19.23-.45.23-.76,0-.37-.08-.63-.23-.79-.15-.16-.4-.23-.74-.23h-.44v2.07h.46Z"/>
        <path class="cls-1" d="M74.63,13.76l2.14,8.78h-2.44l-.23-1.54h-1.82l-.23,1.54h-2.4l2.1-8.78h2.88ZM73.18,15.56l-.63,3.73h1.28l-.63-3.73h-.02Z"/>
        <path class="cls-1" d="M75.93,15.7v-1.94h5.71v1.94h-1.72v6.84h-2.29v-6.84h-1.7Z"/>
        <path class="cls-1" d="M82.06,16.05c.11-.58.28-1.05.53-1.41.25-.37.57-.63.97-.8.4-.17.89-.25,1.48-.25s1.07.08,1.48.25.73.43.97.8c.25.36.42.84.53,1.41s.16,1.28.16,2.1-.05,1.52-.16,2.1-.28,1.05-.53,1.41c-.25.37-.57.63-.97.78-.4.16-.89.23-1.48.23s-1.07-.08-1.48-.23c-.4-.16-.73-.42-.97-.78-.25-.36-.42-.84-.53-1.41-.11-.58-.16-1.28-.16-2.1s.05-1.52.16-2.1ZM84.28,19.62c.02.39.05.7.1.93.05.23.13.39.23.48.1.09.24.13.41.13s.31-.04.41-.13c.1-.09.18-.25.23-.48.05-.23.09-.54.1-.93s.02-.88.02-1.47,0-1.08-.02-1.47c-.02-.39-.05-.7-.1-.93-.05-.23-.13-.39-.23-.48-.1-.09-.24-.13-.41-.13s-.31.04-.41.13c-.1.09-.18.25-.23.48-.05.23-.09.54-.1.93-.02.39-.02.88-.02,1.47s0,1.08.02,1.47Z"/>
        <path class="cls-1" d="M92.57,13.76c.43,0,.81.06,1.11.17.31.12.56.28.75.49.19.21.33.46.42.74s.13.6.13.93c0,.59-.12,1.07-.36,1.43-.24.36-.62.58-1.14.66v.02c.55.05.93.24,1.13.58.21.34.31.8.31,1.39v1.11c0,.12,0,.24.01.35,0,.11.02.21.04.3.02.09.04.16.06.21.03.05.07.1.1.14.03.04.09.09.16.13v.12h-2.44c-.06-.11-.1-.25-.13-.41-.03-.16-.05-.31-.06-.47-.01-.16-.02-.31-.02-.45s0-.26,0-.35v-.59c0-.25-.01-.45-.04-.61-.02-.16-.07-.29-.13-.39-.06-.09-.14-.16-.23-.2-.09-.04-.21-.05-.35-.05h-.6v3.52h-2.29v-8.78h3.58ZM91.74,17.47c.33,0,.57-.1.73-.29.16-.19.23-.45.23-.76,0-.37-.08-.63-.23-.79-.15-.16-.4-.23-.74-.23h-.44v2.07h.46Z"/>
      </g>
    </g>
  </g>
</svg>